Coordinates
nRows=4
nColumns=38

# SIMM Motion File Header:
name Coordinates
datacolumns 38
datarows 4
otherdata 1
range 2.56200000000000030000 2.56499999999999990000

Units are S.I. units (second, meters, Newtons, ...)
Angles are in degrees.

endheader
time	pelvis_tilt	pelvis_list	pelvis_rotation	pelvis_tx	pelvis_ty	pelvis_tz	hip_flexion_r	hip_adduction_r	hip_rotation_r	knee_angle_r	ankle_angle_r	subtalar_angle_r	mtp_angle_r	hip_flexion_l	hip_adduction_l	hip_rotation_l	knee_angle_l	ankle_angle_l	subtalar_angle_l	mtp_angle_l	lumbar_extension	lumbar_bending	lumbar_rotation	arm_flex_r	arm_add_r	arm_rot_r	elbow_flex_r	pro_sup_r	wrist_flex_r	wrist_dev_r	arm_flex_l	arm_add_l	arm_rot_l	elbow_flex_l	pro_sup_l	wrist_flex_l	wrist_dev_l
      2.56200000000000030000	     -2.02906823831098080000	      3.12811311327561150000	     -2.80259319573496370000	      1.20888173142681650000	      0.95864067310479673000	     -0.31091582558444997000	     33.45959844315128600000	      1.50646191151016830000	      5.33527717271112590000	   -107.99936428482262000000	     11.63694921283470600000	     -0.00000000000012582631	      0.00000000000008408372	     -0.64636471206719182000	     12.62659747310261700000	      7.09555114509389550000	    -27.51967030731853500000	     21.02228514689437200000	     -0.00000000000002080278	     -0.00000000000000485163	    -15.60131705897989100000	     -4.04339983275792570000	     -9.65106448932323780000	    -29.81118190603421400000	    -16.76152933849165900000	     -1.06813374318761410000	    115.83299358403880000000	     99.93050357954545900000	      0.00000000000001885873	      0.00000000000001092231	    -16.45483397328499100000	    -16.94826599998172900000	    -14.61283685826359300000	    125.80289981598006000000	     93.83334666714360100000	     -0.00000000000001152802	      0.00000000000007823722
      2.56300000000000020000	     -2.08913150364824410000	      2.99174183202060910000	     -2.78073227433493650000	      1.20902143772643940000	      0.95914694915247112000	     -0.31092275316192647000	     33.75164990554260000000	      1.64515622715130800000	      5.24177720405088370000	   -107.68498958409376000000	     11.76321517475368600000	     -0.00000000000012615985	      0.00000000000008435822	     -1.04753680723026800000	     12.47921049756995700000	      7.27446210818541060000	    -27.12560186808136800000	     20.78356855125212700000	     -0.00000000000002091803	     -0.00000000000000512381	    -15.51377482866519500000	     -3.86129833298222860000	     -9.77601703442299910000	    -30.06513275446390000000	    -16.82615144361819400000	     -1.16981731928266150000	    116.09872702748474000000	     99.97233046772042500000	      0.00000000000001893094	      0.00000000000001095660	    -16.36470648271910400000	    -16.95274796408439900000	    -14.52999176829984200000	    125.99909610240937000000	     93.73573956646036700000	     -0.00000000000001154196	      0.00000000000007843206
      2.56400000000000010000	     -2.15044828553576610000	      2.85290833923317240000	     -2.75786590650791650000	      1.20916374316117950000	      0.95965691340048387000	     -0.31093090322843819000	     34.04160268684784500000	      1.78412047433877510000	      5.14468921624160650000	   -107.36397108281530000000	     11.88813067226874100000	     -0.00000000000012649525	      0.00000000000008463380	     -1.44568126788150900000	     12.32746381332319700000	      7.45088813232381050000	    -26.73214474366233200000	     20.53595572257918200000	     -0.00000000000002103292	     -0.00000000000000540517	    -15.42485536942644800000	     -3.67598706230232920000	     -9.89734459143449460000	    -30.32288755509100000000	    -16.88906610855796900000	     -1.27584075604206790000	    116.36526808509402000000	    100.01194841270051000000	      0.00000000000001900266	      0.00000000000001099159	    -16.27172549077381100000	    -16.95928085428745300000	    -14.43962939593610700000	    126.19396866875847000000	     93.63440838998693000000	     -0.00000000000001155761	      0.00000000000007862321
      2.56499999999999990000	     -2.21298740470094430000	      2.71161384558326680000	     -2.73404260596040900000	      1.20930846516590850000	      0.96017041335611619000	     -0.31094017654283163000	     34.32942840052039900000	      1.92338464244069350000	      5.04409494590645660000	   -107.03634435166839000000	     12.01155051347172700000	     -0.00000000000012683118	      0.00000000000008491090	     -1.84061690367029620000	     12.17136245414668100000	      7.62455690265384870000	    -26.33966523863630700000	     20.27953505772512300000	     -0.00000000000002114475	     -0.00000000000000572556	    -15.33461030664803600000	     -3.48747860811199440000	    -10.01506509627692800000	    -30.58438197026183400000	    -16.95021954645249500000	     -1.38612445085352090000	    116.63254951828804000000	    100.04922103482301000000	      0.00000000000001907384	      0.00000000000001102669	    -16.17597300094738000000	    -16.96781555641704700000	    -14.34192349290270000000	    126.38746095456574000000	     93.52948276267039800000	     -0.00000000000001157288	      0.00000000000007880027
